<svg xmlns="http://www.w3.org/2000/svg" viewBox="0 0 756.32 395.97"><defs><style>.cls-1{fill:#57c791;}</style></defs><g id="Layer_2" data-name="Layer 2"><g id="Layer_1-2" data-name="Layer 1"><path class="cls-1" d="M40.9,236.13a6,6,0,0,0-5.09-.56L4.12,246.29a6.05,6.05,0,0,0-4,6.65l21,137.88A6.08,6.08,0,0,0,29,395.65l31.69-10.72a6.08,6.08,0,0,0,4-6.66l-21-137.88A6.05,6.05,0,0,0,40.9,236.13ZM58.78,379.19,27.09,389.91,6.06,252l31.69-10.72Z"/><path class="cls-1" d="M191.59,246.08,122.64,269.4a6.06,6.06,0,0,0-4,6.7l3.94,24.49a6.07,6.07,0,0,0,7.93,4.77l29.53-10a36,36,0,0,1-5.07,9.1,32.88,32.88,0,0,1-16.06,11.08c-8.22,2.78-15.18,2.93-20.69.44s-9.31-7.3-11.86-14.84a56.72,56.72,0,0,1-2.09-8.93c-1.63-10.65-.26-19.77,4.19-27.86a33.73,33.73,0,0,1,19.63-16.22c4.77-1.61,9.08-2.06,12.8-1.34a13.54,13.54,0,0,1,8.24,4.93,6,6,0,0,0,6.64,1.92l34.84-11.79a6,6,0,0,0,3.66-8c-6-14.64-16-24.56-29.61-29.48-13.27-4.8-28.53-4.34-45.35,1.35A87.71,87.71,0,0,0,63,263,91.79,91.79,0,0,0,60,305.06,100.38,100.38,0,0,0,63.53,320c3.88,11.47,9.88,20.87,17.82,27.92a55.24,55.24,0,0,0,28.81,13.32c10.86,1.66,22.52.43,34.64-3.67a84,84,0,0,0,30.44-17.88,92.42,92.42,0,0,0,20.1-26.47,87.89,87.89,0,0,0,9-29.45,6,6,0,0,0,0-1.59l-4.78-31.23a6.05,6.05,0,0,0-7.93-4.82Zm6.72,37a81.66,81.66,0,0,1-8.39,27.42,86.2,86.2,0,0,1-18.79,24.74,77.85,77.85,0,0,1-28.27,16.58q-16.86,5.7-31.78,3.42a49,49,0,0,1-25.7-11.86Q74.6,333.77,69.27,318A95,95,0,0,1,66,304a85.25,85.25,0,0,1,2.74-39.23,81.66,81.66,0,0,1,52.48-53.38q23.36-7.91,41.35-1.39t26.07,26.09l-34.84,11.78A19.53,19.53,0,0,0,142,240.85q-7.19-1.4-15.89,1.55a39.88,39.88,0,0,0-23,19q-7.6,13.83-4.87,31.7a63.59,63.59,0,0,0,2.34,9.95q4.64,13.71,15.11,18.43t25.12-.23a39.16,39.16,0,0,0,18.91-13.11,45.6,45.6,0,0,0,8.84-22.1l-40,13.54-4-24.48,69-23.32Z"/><path class="cls-1" d="M286.66,153a6.08,6.08,0,0,0-5.09-.57l-31.7,10.72a6.06,6.06,0,0,0-4,6.66l14.39,93.83c.57,3.79.3,6.77-.8,8.85a8.07,8.07,0,0,1-4.9,3.93c-2.63.89-3.74.34-4.1.16-.95-.47-1.85-1.86-2.55-3.91a25.76,25.76,0,0,1-1-4.47,6.06,6.06,0,0,0-7.94-4.89L207.42,274a6.05,6.05,0,0,0-4.06,6.51,62,62,0,0,0,2.85,11.86c4.33,12.81,11.86,21.48,22.39,25.77,10.21,4.16,22.09,4,35.32-.48,14.39-4.87,25.37-13.24,32.61-24.88s9.74-25.67,7.36-41.64L289.5,157.26A6,6,0,0,0,286.66,153Zm11.24,99q3.25,21.82-6.51,37.52T262,311.9q-17.79,6-31.08.61T212,290.41a56.13,56.13,0,0,1-2.59-10.69l31.51-10.66a31.4,31.4,0,0,0,1.26,5.56c1.26,3.71,3.12,6.17,5.61,7.4s5.38,1.28,8.72.15a14.08,14.08,0,0,0,8.32-6.84q2.58-4.9,1.43-12.57L251.82,168.9l31.69-10.72Z"/><path class="cls-1" d="M450.05,141.65a50.27,50.27,0,0,0-2.28-9.49c-3.76-11.13-10.62-19-20.38-23.4s-21.73-4.08-36,.76a65.35,65.35,0,0,0-34.24,26c-8.33,12.49-11.43,28-9.2,46a6.06,6.06,0,0,0,7.95,5l30.77-10.41a6.06,6.06,0,0,0,4.06-6.56c-2.26-16.56,4.66-18.9,7.27-19.78,2.2-.75,4-.89,5-.4s1.83,1.69,2.49,3.65a18.22,18.22,0,0,1,.79,3.76c0,.09,0,.19,0,.29.87,5.21-.3,11.65-3.46,19.13a163,163,0,0,1-13.79,25.46c-5.83,8.91-13.91,20.55-24,34.6L359.59,244a6,6,0,0,0-1.06,4.46l3.88,24.92a6.05,6.05,0,0,0,7.93,4.8l93-31.46a6.07,6.07,0,0,0,4.05-6.64l-4.08-27.33a6.06,6.06,0,0,0-7.93-4.84l-32.23,10.9A268.82,268.82,0,0,0,441.85,187C449.49,171.43,452.25,156.17,450.05,141.65Zm-42.73,88.87,50-16.92,4.08,27.33-93,31.47-3.89-24.92,5.48-7.64q15.3-21.28,24.16-34.81a168,168,0,0,0,14.3-26.42q5.44-12.9,3.86-22.48a24.41,24.41,0,0,0-1.07-5c-1.22-3.58-3.09-6-5.64-7.18s-5.73-1.16-9.55.14q-14.28,4.81-11.33,26.34L354,180.83q-3.07-25,8.23-41.93a59.12,59.12,0,0,1,31.14-23.64q19.28-6.53,31.58-1T442,134.1a43.36,43.36,0,0,1,2,8.4q3.06,20-7.64,41.83T407.32,230.52Z"/><path class="cls-1" d="M545.42,74c-11.1-6.56-25-7.08-41.41-1.54-20,6.75-33.58,18.89-40.48,36.07-6.62,16.48-8.2,36.36-4.69,59.09A142.43,142.43,0,0,0,464.38,191c5.25,15.54,13.32,26.68,24,33.1,11,6.63,24.87,7.18,41.27,1.63,19.95-6.75,33.59-18.89,40.56-36.08,6.69-16.51,8.31-36.4,4.8-59.14a145.82,145.82,0,0,0-5.36-23.43C564.35,91.5,556.21,80.38,545.42,74ZM569,131.43q5,32.59-4.42,55.93T527.67,220q-22,7.46-36.2-1.08T470.12,189a136.14,136.14,0,0,1-5.3-22.37q-5-32.59,4.33-55.89T506,78.19q22.05-7.45,36.38,1T563.87,109A139.18,139.18,0,0,1,569,131.43Z"/><path class="cls-1" d="M510.79,109.6q-12.8,4.34-15.3,16.13t.47,30.4a115.76,115.76,0,0,0,4,18.67q3.13,9.27,8.53,13t14.3.74q12.79-4.32,15.3-16.12T537.66,142a116.27,116.27,0,0,0-4-18.67q-3.14-9.27-8.54-13T510.79,109.6ZM531.68,143c1.86,11.61,2,21.09.53,28.18-1.23,5.75-4.82,9.45-11.32,11.65-4,1.35-7,1.36-8.9,0-2.49-1.73-4.59-5.09-6.25-10a111.85,111.85,0,0,1-3.8-17.69c-1.86-11.6-2-21.08-.53-28.18,1.23-5.75,4.82-9.45,11.32-11.65,4-1.34,7-1.35,8.9,0,2.49,1.73,4.59,5.09,6.25,10A112.47,112.47,0,0,1,531.68,143Z"/><path class="cls-1" d="M676.72,65a51.15,51.15,0,0,0-2.28-9.5c-3.76-11.12-10.62-19-20.38-23.4-9.61-4.33-21.73-4.07-36,.76a65.29,65.29,0,0,0-34.23,26c-8.34,12.49-11.43,28-9.21,46a6.06,6.06,0,0,0,8,5l30.76-10.41a6,6,0,0,0,4.06-6.56c-2.26-16.56,4.67-18.9,7.27-19.78,2.21-.75,4-.89,5-.4s1.83,1.7,2.49,3.65a19,19,0,0,1,.8,3.76,2.54,2.54,0,0,0,0,.29c.86,5.22-.31,11.65-3.47,19.13A162.46,162.46,0,0,1,615.75,125c-5.83,8.91-13.91,20.54-24,34.61l-5.47,7.63a6.05,6.05,0,0,0-1.07,4.46l3.89,24.92a6.06,6.06,0,0,0,7.93,4.81L690,170a6.07,6.07,0,0,0,4.06-6.64L690,136a6.07,6.07,0,0,0-7.94-4.84l-32.23,10.9a266.09,266.09,0,0,0,18.66-31.76C676.16,94.76,678.92,79.51,676.72,65ZM634,153.85l50-16.92,4.08,27.33-93,31.47-3.88-24.92,5.47-7.63q15.32-21.3,24.17-34.82a168.31,168.31,0,0,0,14.29-26.42q5.46-12.89,3.87-22.48a24.81,24.81,0,0,0-1.08-5q-1.81-5.37-5.63-7.19t-9.56.14q-14.26,4.83-11.33,26.34l-30.76,10.41q-3.09-25,8.23-41.92A59.05,59.05,0,0,1,620,38.59q19.28-6.53,31.58-1T668.7,57.43a45,45,0,0,1,2,8.41q3.06,20-7.65,41.82T634,153.85Z"/><path class="cls-1" d="M732.13.88A6.07,6.07,0,0,0,727,.32L675.7,17.68a6.06,6.06,0,0,0-4,6.66l4.77,31.22a6.07,6.07,0,0,0,7.93,4.83l11.51-3.9,15.41,100.88a6.07,6.07,0,0,0,7.93,4.83l33-11.16a6.05,6.05,0,0,0,4-6.66L735,5.14A6.05,6.05,0,0,0,732.13.88ZM750.26,145.3l-33,11.16-16.5-108-18.35,6.21-4.78-31.23L729,6.06Z"/></g></g></svg>